:version 1.10
:name ASF
:units
  mass 1
  length 1
  angle deg
:documentation
  ASF file generated by Kaydara
:root
  axis xyz
  order  tx ty tz rx ry rz
  position 0 0 0
  orientation 0 0 0
:bonedata
  begin
    id 1
    name RightUpLegDummy
    direction -0.718183 -0.695806 0.00816078
    length 4.904
    axis 0 0 0 xyz
  end
  begin
    id 2
    name RightUpLeg
    direction -0.0736652 -0.994202 0.0783343
    length 17.4976
    axis -2.72909 -3.00389 -4.00133 xyz
    dof rx ry rz
  end
  begin
    id 3
    name RightLeg
    direction -0.0389037 -0.994596 -0.0962598
    length 16.5821
    axis 3.95836 -18.5909 -4.46993 xyz
    dof rx ry rz
  end
  begin
    id 4
    name RightFoot
    direction -0.311643 -0.412678 0.855906
    length 3.77069
    axis -1.99483 -18.8351 -3.27644 xyz
    dof rx ry rz
  end
  begin
    id 5
    name RightToes
    direction -0.317852 0.0389852 0.947339
    length 3.85082
    axis -2.00228 -18.1713 -3.25211 xyz
    dof rx ry rz
  end
  begin
    id 6
    name SpineDummy
    direction 8.3039e-015 1 4.44677e-016
    length 4.6813
    axis 0 0 0 xyz
  end
  begin
    id 7
    name Spine
    direction -0.000262373 0.999988 0.00493267
    length 10.1015
    axis -0.00246081 0.00062579 0.0150362 xyz
    dof rx ry rz
  end
  begin
    id 8
    name Spine1
    direction 0 0 0
    length 0
    axis -0.00349562 0.000650293 0.0196666 xyz
    dof rx ry rz
  end
  begin
    id 9
    name HEadDummy
    direction -0.000343232 0.999999 0.00123745
    length 3.43865
    axis -0.00349562 0.000650293 0.0196666 xyz
  end
  begin
    id 10
    name HEad
    direction -0.0461221 0.980933 0.188796
    length 5.12695
    axis -0.00351404 -7.04812 0.0199272 xyz
    dof rx ry rz
  end
  begin
    id 11
    name LeftShoulder1Dummy
    direction 0.998904 -0.0399089 -0.0244534
    length 3.5433
    axis -0.00349562 0.000650293 0.0196666 xyz
  end
  begin
    id 12
    name LeftShoulder1
    direction 0.99951 1.64443e-005 0.0312999
    length 4.05031
    axis -0.00349562 0.000650293 0.0196666 xyz
    dof rx ry rz
  end
  begin
    id 13
    name LeftArm
    direction 0.984791 0.0515299 0.165927
    length 12.9126
    axis -64.823 -10.7743 5.20463 xyz
    dof rx ry rz
  end
  begin
    id 14
    name LeftForeArm
    direction 0.984968 0.0534808 0.16425
    length 10.8596
    axis -30.0462 -7.70601 1.87451 xyz
    dof rx ry rz
  end
  begin
    id 15
    name LeftHand
    direction 0.975871 0.0289682 0.216418
    length 6.62295
    axis -20.1348 -6.98077 1.86072 xyz
    dof rx ry rz
  end
  begin
    id 16
    name RightShoulderDummy
    direction -0.998877 -0.0405946 -0.0244307
    length 3.5433
    axis -0.00349562 0.000650293 0.0196666 xyz
  end
  begin
    id 17
    name RightShoulder
    direction -0.998933 -0.0249743 -0.0388558
    length 4.05031
    axis -0.0205316 -4.02113 1.41395 xyz
    dof rx ry rz
  end
  begin
    id 18
    name RightArm
    direction -0.997559 0.068664 0.0127103
    length 12.9638
    axis -67.3882 1.84188 -6.15987 xyz
    dof rx ry rz
  end
  begin
    id 19
    name RightForeArm
    direction -0.991508 0.0912848 0.0926241
    length 10.8312
    axis -22.1975 3.41087 -4.28711 xyz
    dof rx ry rz
  end
  begin
    id 20
    name RightHand
    direction -0.989262 0.0600788 0.133232
    length 6.57864
    axis -12.2911 2.17515 -4.39675 xyz
    dof rx ry rz
  end
  begin
    id 21
    name LeftUpLegDummy
    direction 0.718183 -0.695806 0.00816078
    length 4.904
    axis 0 0 0 xyz
  end
  begin
    id 22
    name LeftUpLeg
    direction 0.0831398 -0.99469 0.0606531
    length 17.4976
    axis -1.71016 2.29552 4.63832 xyz
    dof rx ry rz
  end
  begin
    id 23
    name LeftLeg
    direction 0.0498442 -0.991778 -0.117862
    length 16.5821
    axis 5.13757 15.5727 5.13348 xyz
    dof rx ry rz
  end
  begin
    id 24
    name LeftFoot
    direction 0.269026 -0.433896 0.85986
    length 3.77069
    axis -0.576502 15.6961 4.10267 xyz
    dof rx ry rz
  end
  begin
    id 25
    name LeftToes
    direction 0.277311 0.0251143 0.960452
    length 3.85048
    axis -0.576502 15.6961 4.10267 xyz
    dof rx ry rz
  end
:hierarchy
  begin
    root RightUpLegDummy SpineDummy LeftUpLegDummy
    RightUpLegDummy RightUpLeg
    RightUpLeg RightLeg
    RightLeg RightFoot
    RightFoot RightToes
    SpineDummy Spine
    Spine Spine1
    Spine1 HEadDummy LeftShoulder1Dummy RightShoulderDummy
    HEadDummy HEad
    LeftShoulder1Dummy LeftShoulder1
    LeftShoulder1 LeftArm
    LeftArm LeftForeArm
    LeftForeArm LeftHand
    RightShoulderDummy RightShoulder
    RightShoulder RightArm
    RightArm RightForeArm
    RightForeArm RightHand
    LeftUpLegDummy LeftUpLeg
    LeftUpLeg LeftLeg
    LeftLeg LeftFoot
    LeftFoot LeftToes
  end

:SAMPLES-PER-SECOND 30
:FULLY-SPECIFIED
:DEGREES
16
root  9.35776 37.2017 -64.0073 19.6623 1.24625 -1.20578
RightUpLeg  -42.9267 -10.462 9.03957
RightLeg  34.8358 9.25419 -5.98081
RightFoot  -14.1312 0.0415107 -0.157166
RightToes  -5.82073e-011 -3.18055e-015 -2.98177e-016
Spine  22.1201 -1.40074 4.85147
Spine1  3.18548 -1.69342 1.41254
HEad  -30.3077 4.55896 0.0322749
LeftShoulder1  -3.88251e-019 9.70628e-020 -3.87848e-018
LeftArm  97.9964 86.069 46.3757
LeftForeArm  -16.5271 -24.5297 0.019413
LeftHand  -0.117321 3.40127 8.24891
RightShoulder  7.33219 10.3065 35.0332
RightArm  60.6926 -61.6774 -50.2597
RightForeArm  -7.11861 18.371 -6.92618
RightHand  0.0303245 -5.70107 -18.6627
LeftUpLeg  -38.2242 1.1461 -4.61783
LeftLeg  37.5901 -2.13981 10.5459
LeftFoot  -20.1691 -0.199057 -2.32285
LeftToes  1.2018e-011 -3.94675e-011 -1.33631e-011
17
root  9.33317 36.0711 -64.0703 22.1426 -0.332764 -1.82518
RightUpLeg  -49.966 -8.88541 10.0147
RightLeg  42.6512 10.1945 -6.66719
RightFoot  -17.169 0.0433449 -0.279297
RightToes  -5.82073e-011 -3.18055e-015 -2.98177e-016
Spine  22.5771 -1.11029 5.21914
Spine1  5.21185 -1.44856 1.18716
HEad  -33.6061 6.06585 -0.965754
LeftShoulder1  -3.88251e-019 9.70628e-020 -3.87848e-018
LeftArm  136.989 81.5682 88.6299
LeftForeArm  -15.1407 -23.4407 -1.35626
LeftHand  -0.115785 3.07897 6.57038
RightShoulder  7.21914 10.2841 34.5023
RightArm  72.2123 -60.5377 -62.7201
RightForeArm  -10.4818 19.4187 -8.06973
RightHand  -0.0448797 -5.22811 -17.8188
LeftUpLeg  -45.1914 1.24565 -4.11062
LeftLeg  46.0662 -2.7515 13.2491
LeftFoot  -23.3053 -0.418565 -3.98132
LeftToes  1.2018e-011 -3.94675e-011 -1.33631e-011
18
root  9.32677 34.7271 -64.1329 24.0735 -1.81042 -2.60507
RightUpLeg  -56.5859 -7.53994 11.0257
RightLeg  50.7849 11.23 -7.21344
RightFoot  -20.3117 0.0266862 -0.619512
RightToes  -5.82073e-011 -3.18055e-015 -2.98177e-016
Spine  23.5144 -1.0283 5.77949
Spine1  6.77613 -1.18952 0.407407
HEad  -36.1597 7.54364 -1.50907
LeftShoulder1  -3.88251e-019 9.70628e-020 -3.87848e-018
LeftArm  145.672 75.9869 99.1283
LeftForeArm  -14.7336 -22.8054 -2.09739
LeftHand  -0.121734 2.95153 6.49718
RightShoulder  7.20896 10.3451 34.3153
RightArm  83.1915 -58.3086 -72.8716
RightForeArm  -17.0403 21.1095 -9.86311
RightHand  -0.130068 -4.64974 -17.143
LeftUpLeg  -51.7146 1.52316 -3.55624
LeftLeg  54.7097 -3.92088 16.1428
LeftFoot  -26.4569 -0.726404 -5.58391
LeftToes  1.2018e-011 -3.94675e-011 -1.33631e-011
19
root  9.3316 33.2051 -64.1225 25.8884 -3.01532 -3.65445
RightUpLeg  -62.963 -6.4522 12.379
RightLeg  59.0635 12.3673 -7.49524
RightFoot  -23.7889 0.0129295 -0.714322
RightToes  -5.82073e-011 -3.18055e-015 -2.98177e-016
Spine  24.4624 -1.05988 6.6668
Spine1  7.80873 -0.940444 -0.531255
HEad  -37.9139 9.03977 -1.75753
LeftShoulder1  -3.88251e-019 9.70628e-020 -3.87848e-018
LeftArm  147.066 71.461 103.112
LeftForeArm  -14.6152 -21.8971 -2.98444
LeftHand  -0.0871657 3.2913 5.24164
RightShoulder  7.17216 10.3859 34.0362
RightArm  89.7236 -56.2602 -79.2385
RightForeArm  -22.3902 22.4607 -11.0572
RightHand  -0.251378 -3.97191 -18.6266
LeftUpLeg  -58.0077 2.34192 -3.01786
LeftLeg  63.2783 -5.8481 18.732
LeftFoot  -29.8872 -1.15236 -7.23979
LeftToes  1.2018e-011 -3.94675e-011 -1.33631e-011
20
root  9.3517 31.6527 -63.9991 27.8233 -3.92346 -4.73629
RightUpLeg  -68.907 -5.53707 13.726
RightLeg  66.8347 13.4497 -7.50003
RightFoot  -27.3837 0.0323155 -0.472992
RightToes  -5.82073e-011 -3.18055e-015 -2.98177e-016
Spine  25.0455 -0.987822 7.53482
Spine1  8.48472 -0.651089 -1.15925
HEad  -39.2479 10.3513 -1.99783
LeftShoulder1  -3.88251e-019 9.70628e-020 -3.87848e-018
LeftArm  145.155 69.2661 104.53
LeftForeArm  -13.6453 -20.2355 -4.19857
LeftHand  -0.0552593 3.47643 3.36433
RightShoulder  7.03496 10.3363 33.4359
RightArm  91.105 -55.7749 -81.489
RightForeArm  -26.0848 23.3679 -11.4579
RightHand  -0.311815 -3.87015 -22.1415
LeftUpLeg  -63.7348 3.38551 -2.62334
LeftLeg  70.9513 -8.14857 20.6635
LeftFoot  -33.4512 -1.70122 -8.95066
LeftToes  1.2018e-011 -3.94675e-011 -1.33631e-011
21
root  9.39938 30.2852 -63.7625 29.7618 -4.48486 -5.52016
RightUpLeg  -73.9414 -4.83999 14.5837
RightLeg  73.2406 14.2591 -7.51788
RightFoot  -30.4019 0.0595058 -0.27693
RightToes  -5.82073e-011 -3.18055e-015 -2.98177e-016
Spine  25.8318 -0.852006 8.09565
Spine1  8.11262 -0.417492 -1.27007
HEad  -40.6137 11.3065 -2.34608
LeftShoulder1  -3.88251e-019 9.70628e-020 -3.87848e-018
LeftArm  143.964 69.5701 104.668
LeftForeArm  -13.2212 -18.5897 -4.91266
LeftHand  -0.0411905 3.90181 3.06187
RightShoulder  6.87665 10.2481 32.8031
RightArm  88.3059 -56.9798 -80.1581
RightForeArm  -29.2102 24.6661 -11.946
RightHand  -0.227519 -4.45903 -25.5607
LeftUpLeg  -68.2357 4.02993 -2.4584
LeftLeg  76.8065 -10.1671 22.0834
LeftFoot  -36.8733 -2.26649 -10.2662
LeftToes  1.2018e-011 -3.94675e-011 -1.33631e-011
22
root  9.47174 29.2211 -63.404 31.3878 -4.71783 -5.95728
RightUpLeg  -77.599 -4.42649 14.9513
RightLeg  78.0731 14.8095 -7.74631
RightFoot  -32.8277 0.110233 -0.00855751
RightToes  -5.82073e-011 -3.18055e-015 -2.98177e-016
Spine  27.5152 -0.780863 8.4458
Spine1  6.15712 -0.289164 -0.97673
HEad  -42.0069 11.8523 -2.61224
LeftShoulder1  -3.88251e-019 9.70628e-020 -3.87848e-018
LeftArm  144.498 72.8621 104.542
LeftForeArm  -13.5814 -17.3372 -4.98727
LeftHand  -0.0217381 4.8818 3.37435
RightShoulder  6.66222 10.1267 31.934
RightArm  81.583 -59.9028 -74.544
RightForeArm  -30.9128 26.2686 -12.6843
RightHand  -0.148887 -4.85913 -27.5517
LeftUpLeg  -71.0638 4.12606 -2.53777
LeftLeg  80.6626 -11.6065 23.4531
LeftFoot  -40.202 -2.79703 -11.111
LeftToes  1.2018e-011 -3.94675e-011 -1.33631e-011
